<?xml version="1.0" encoding="utf-8"?>
<!-- Generator: Adobe Illustrator 19.2.1, SVG Export Plug-In . SVG Version: 6.00 Build 0)  -->
<svg version="1.1" id="Слой_1" xmlns="http://www.w3.org/2000/svg" xmlns:xlink="http://www.w3.org/1999/xlink" x="0px" y="0px"
	 viewBox="0 0 80 80" style="enable-background:new 0 0 80 80;" xml:space="preserve">
<style type="text/css">
	.st0{fill:#E75E50;}
</style>
<title>Ресурс 4</title>
<g id="Слой_2">
	<g id="Слой_1-2">
		<path class="st0" d="M61.3,34.5l3.3,3.3l-4.7,4.7V0H13.8L0,13.8v56.5h3.4l-2.6,2.6L7.8,80l9.7-9.7h22.4l3.2,3.1l3.1-3.1h13.8V56.5
			l11.7-11.7l3.3,3.3L80,29.4L61.3,34.5z M13,4.4V13H4.4L13,4.4z M20.1,67.7l8.6-8.6l8.6,8.6H20.1z M57.3,67.7h-8.6l8.6-8.6
			L57.3,67.7z M73.6,43.1l-1.9-1.9L43,69.8L28.6,55.5L7.8,76.3l-3.4-3.4l24.2-24.2L43,63l5.2-5.1l-1.8-1.8l-2,2V44.3h-7.8v-5.2h-7.8
			v-7.8H18.2v5.2h-7.8v23.4H7.8v2.6h3.4L6,67.7H2.6V15.6h13v-13h41.7V45l-9,9l1.8,1.8l18.1-18.1l-1.9-1.9l10-2.7L73.6,43.1z
			 M13,59.9V39.1h5.2v16.4l-4.4,4.5H13z M20.8,37.8v-3.9H26v13.8l-5.2,5.2V37.8z M28.6,41.7h5.2v8.6L28.6,45L28.6,41.7z M36.5,46.9
			h5.2v11.2l-5.2-5.2V46.9z"/>
		<rect x="18.2" y="5.2" class="st0" width="2.6" height="2.6"/>
		<rect x="23.4" y="5.2" class="st0" width="28.6" height="2.6"/>
		<rect x="18.2" y="10.4" class="st0" width="33.9" height="2.6"/>
		<rect x="18.2" y="15.6" class="st0" width="33.9" height="2.6"/>
		<rect x="7.8" y="20.8" class="st0" width="44.3" height="2.6"/>
		<rect x="7.8" y="26" class="st0" width="39.1" height="2.6"/>
		<rect x="49.5" y="26" class="st0" width="2.6" height="2.6"/>
	</g>
</g>
</svg>
