<?xml version="1.0" encoding="utf-8"?>
<!-- Generator: Adobe Illustrator 19.2.1, SVG Export Plug-In . SVG Version: 6.00 Build 0)  -->
<svg version="1.1" id="Слой_1" xmlns="http://www.w3.org/2000/svg" xmlns:xlink="http://www.w3.org/1999/xlink" x="0px" y="0px"
	 viewBox="0 0 80 80" style="enable-background:new 0 0 80 80;" xml:space="preserve">
<style type="text/css">
	.st0{fill:#E75E50;}
</style>
<title>Ресурс 3</title>
<g id="Слой_2">
	<g id="Слой_1-2">
		<path class="st0" d="M46.5,23.2c0-4.8-1.5-9.6-4.4-13.5L43,9c0.9,0.8,2.1,1.3,3.4,1.3c0.8,0,1.7-0.2,2.4-0.6l5.4,7.5
			c-1.9,2.1-1.8,5.4,0.3,7.3s5.4,1.8,7.3-0.3c1.5-1.7,1.8-4.1,0.6-6.1l9.6-8.6c2.4,1.5,5.6,0.7,7.1-1.7s0.7-5.6-1.7-7.1
			S71.9,0,70.4,2.5c-0.5,0.8-0.7,1.7-0.7,2.7c0,0.9,0.2,1.8,0.7,2.5l-9.6,8.6c-0.8-0.5-1.7-0.8-2.7-0.8c-0.6,0-1.1,0.1-1.7,0.3
			L50.8,8c1.6-2.4,0.9-5.6-1.4-7.2s-5.6-0.9-7.2,1.4c-0.9,1.4-1.1,3.1-0.6,4.6l-1.1,0.9C31.9-1.8,17.3-2.6,7.7,6S-2.6,29.2,6,38.7
			c2.6,2.9,5.9,5.1,9.5,6.4V49h-2.6v2.6h2.6v2.6h-2.6v2.6h2.6v15.5c0.2,4.3,3.7,7.6,8,7.5c4.1-0.1,7.3-3.4,7.5-7.5V56.8h2.6v-2.6H31
			v-2.6h2.6V49H31v-3.9C40.3,41.8,46.4,33.1,46.5,23.2z M74.8,2.6c1.4,0,2.6,1.2,2.6,2.6c0,1.4-1.2,2.6-2.6,2.6
			c-1.4,0-2.6-1.2-2.6-2.6C72.3,3.7,73.4,2.6,74.8,2.6z M60.7,20.6c0,1.4-1.2,2.6-2.6,2.6s-2.6-1.2-2.6-2.6c0-1.4,1.2-2.6,2.6-2.6
			S60.7,19.2,60.7,20.6L60.7,20.6z M46.5,2.6c1.4,0,2.6,1.2,2.6,2.6s-1.2,2.6-2.6,2.6s-2.6-1.2-2.6-2.6c0,0,0,0,0,0
			C43.9,3.7,45,2.6,46.5,2.6z M2.6,23.2c0-11.4,9.2-20.6,20.6-20.7C29,2.6,34.5,5,38.4,9.3l-4.1,3.2c-5.9-6.1-15.7-6.2-21.8-0.3
			s-6.2,15.7-0.3,21.8s15.7,6.2,21.8,0.3c5.4-5.2,6.2-13.6,2-19.8l4.1-3.1c6.6,9.3,4.4,22.2-4.9,28.8S13,44.5,6.4,35.2
			C3.9,31.7,2.6,27.5,2.6,23.2z M25.8,23.2c0,1.4-1.2,2.6-2.6,2.6s-2.6-1.2-2.6-2.6s1.2-2.6,2.6-2.6l0,0
			C24.7,20.7,25.8,21.8,25.8,23.2z M26,18.9c-0.8-0.5-1.8-0.8-2.8-0.8c-2.9,0-5.2,2.3-5.2,5.2s2.3,5.2,5.2,5.2
			c2.9,0,5.2-2.3,5.2-5.2c0,0,0,0,0,0c0-0.9-0.2-1.7-0.6-2.5l6.2-4.8c1.4,2.1,2.2,4.6,2.2,7.2c0,7.1-5.8,12.9-12.9,13
			c-7.1,0-12.9-5.8-13-12.9c0-7.1,5.8-12.9,12.9-13c3.4,0,6.7,1.3,9.1,3.7L26,18.9z M28.4,72.3c-0.1,2.9-2.5,5.1-5.4,4.9
			c-2.7-0.1-4.8-2.3-4.9-4.9V56.8h10.3L28.4,72.3z M28.4,54.2H18.1v-2.6h10.3L28.4,54.2z M28.4,49H18.1v-3.2c3.4,0.8,6.9,0.8,10.3,0
			L28.4,49z"/>
		<path class="st0" d="M41.3,40.8V80H80V28.4H53.7L41.3,40.8z M52.9,32.8V40h-7.2L52.9,32.8z M77.4,77.4H43.9V42.6h11.6V31h21.9
			V77.4z"/>
		<path class="st0" d="M46.5,74.8h28.4V59.3H46.5V74.8z M49,61.9h23.3v10.3H49V61.9z"/>
		<rect x="58.1" y="33.5" class="st0" width="2.6" height="2.6"/>
		<rect x="63.2" y="33.5" class="st0" width="11.6" height="2.6"/>
		<rect x="58.1" y="38.7" class="st0" width="16.8" height="2.6"/>
		<rect x="58.1" y="43.9" class="st0" width="16.8" height="2.6"/>
		<rect x="46.5" y="49" class="st0" width="28.4" height="2.6"/>
		<rect x="46.5" y="54.2" class="st0" width="23.2" height="2.6"/>
		<rect x="72.3" y="54.2" class="st0" width="2.6" height="2.6"/>
	</g>
</g>
</svg>
