<svg xmlns="http://www.w3.org/2000/svg" viewBox="0 0 80 80"><defs><style>.cls-1{fill:#333;}</style></defs><title>Ресурс 1</title><g id="Слой_2" data-name="Слой 2"><g id="Слой_1-2" data-name="Слой 1"><path class="cls-1" d="M50.32,0A29.67,29.67,0,0,0,24.17,43.69l-2.23,2.23-3-3-1.83,1.82,3,3-2.05,2-2.95-3-1.83,1.82,3,3L2.52,65.34A8.5,8.5,0,0,0,0,71.41,8.6,8.6,0,0,0,8.59,80a8.5,8.5,0,0,0,6.07-2.52L28.39,63.76l3,3,1.82-1.83-3-3,2-2,3,3L37,61l-3-3,2.23-2.23A29.67,29.67,0,1,0,50.32,0ZM12.84,75.66a6,6,0,0,1-8.5-8.5L18.06,53.44l8.5,8.5ZM28.39,60.11l-8.5-8.5,2.05-2,8.49,8.49Zm3.87-3.87-8.5-8.5L25.53,46a30.18,30.18,0,0,0,8.5,8.5Zm18.06.53A27.1,27.1,0,0,1,23.54,33.55h9.38l5.77-8.08L50.31,42.24l12.88-18L67.7,31h4.56V28.39H69.08l-5.82-8.73L50.34,37.76,38.73,21,31.59,31h-8.3c0-.43-.06-.86-.06-1.29s0-.86.06-1.29h2.52V25.81H23.54a27.06,27.06,0,0,1,53.81,2.58H74.84V31h2.51q-.06,1.3-.24,2.58H72.26v2.58h4.35A27.12,27.12,0,0,1,50.32,56.77Z"/><path class="cls-1" d="M58.06,6.45a5.14,5.14,0,0,0-4.32,8L48,22.48l2.1,1.5,5.59-7.82a5.08,5.08,0,0,0,2.39.61,5.16,5.16,0,1,0,0-10.32Zm0,7.74a2.58,2.58,0,1,1,2.59-2.58A2.58,2.58,0,0,1,58.06,14.19Z"/><rect class="cls-1" x="67.1" y="33.55" width="2.58" height="2.58"/><rect class="cls-1" x="28.39" y="25.81" width="2.58" height="2.58"/></g></g></svg>