<svg xmlns="http://www.w3.org/2000/svg" viewBox="0 0 80 80"><defs><style>.cls-1{fill:#333;}</style></defs><title>Ресурс 3</title><g id="Слой_2" data-name="Слой 2"><g id="Слой_1-2" data-name="Слой 1"><path class="cls-1" d="M46.45,23.23A23.08,23.08,0,0,0,42.1,9.74L43.05,9a5.09,5.09,0,0,0,3.4,1.31,5,5,0,0,0,2.4-.62l5.37,7.53a5.18,5.18,0,1,0,8.31.88l9.63-8.56a5.15,5.15,0,1,0-2.48-4.39,5,5,0,0,0,.69,2.53l-9.63,8.56a5.09,5.09,0,0,0-2.68-.77,5.27,5.27,0,0,0-1.69.31L50.78,8A5.17,5.17,0,1,0,41.6,6.87l-1.12.86a23.2,23.2,0,1,0-25,37.37V49H12.9v2.58h2.58v2.58H12.9v2.58h2.58V72.26a7.75,7.75,0,0,0,15.49,0V56.77h2.58V54.19H31V51.61h2.58V49H31V45.1A23.26,23.26,0,0,0,46.45,23.23ZM74.84,2.58a2.58,2.58,0,1,1-2.58,2.58A2.59,2.59,0,0,1,74.84,2.58ZM60.65,20.65a2.59,2.59,0,1,1-2.59-2.59A2.59,2.59,0,0,1,60.65,20.65ZM46.45,2.58a2.58,2.58,0,1,1-2.58,2.58A2.59,2.59,0,0,1,46.45,2.58ZM2.58,23.23A20.61,20.61,0,0,1,38.43,9.31l-4.1,3.15a15.41,15.41,0,1,0,1.64,2l4.09-3.14A20.64,20.64,0,1,1,2.58,23.23Zm23.23,0a2.58,2.58,0,1,1-2.58-2.58A2.59,2.59,0,0,1,25.81,23.23ZM26,18.88a5.1,5.1,0,0,0-2.75-.82,5.17,5.17,0,1,0,5.16,5.17,5.09,5.09,0,0,0-.65-2.45L33.93,16a12.79,12.79,0,0,1,2.2,7.2A12.94,12.94,0,1,1,32.27,14Zm2.41,53.38a5.17,5.17,0,0,1-10.33,0V56.77H28.39Zm0-18.07H18.06V51.61H28.39Zm0-5.16H18.06V45.85a22.53,22.53,0,0,0,10.33,0Z"/><path class="cls-1" d="M41.29,40.76V80H80V28.39H53.66Zm11.61-8V40H45.7ZM77.42,77.42H43.87V42.58H55.48V31H77.42Z"/><path class="cls-1" d="M46.45,74.84H74.84V59.35H46.45ZM49,61.94H72.26V72.26H49Z"/><rect class="cls-1" x="58.06" y="33.55" width="2.58" height="2.58"/><rect class="cls-1" x="63.23" y="33.55" width="11.61" height="2.58"/><rect class="cls-1" x="58.06" y="38.71" width="16.77" height="2.58"/><rect class="cls-1" x="58.06" y="43.87" width="16.77" height="2.58"/><rect class="cls-1" x="46.45" y="49.03" width="28.39" height="2.58"/><rect class="cls-1" x="46.45" y="54.19" width="23.23" height="2.58"/><rect class="cls-1" x="72.26" y="54.19" width="2.58" height="2.58"/></g></g></svg>