<svg xmlns="http://www.w3.org/2000/svg" viewBox="0 0 80 79.99"><defs><style>.cls-1{fill:#333;}</style></defs><title>Ресурс 4</title><g id="Слой_2" data-name="Слой 2"><g id="Слой_1-2" data-name="Слой 1"><path class="cls-1" d="M61.31,34.5l3.27,3.27-4.67,4.67V0H13.79L0,13.79V70.33H3.37L.76,72.93,7.81,80l9.66-9.66H39.84L43,73.47l3.14-3.14H59.91V56.54L71.63,44.82l3.27,3.27L80,29.4ZM13,4.45V13H4.45Zm7.06,63.27,8.57-8.57,8.58,8.57Zm37.23,0H48.73l8.58-8.57ZM73.57,43.08l-1.94-1.94L43,69.79,28.65,55.46,7.81,76.3,4.45,72.93l24.2-24.2L43,63.05l5.15-5.14-1.85-1.84-2,2V44.28H36.47V39.07H28.65V31.26H18.23v5.21H10.42V59.91H7.81v2.61h3.37L6,67.72H2.6V15.63h13V2.6H57.31V45l-9,9,1.84,1.85L68.26,37.77l-1.93-1.94,10-2.72ZM13,59.91V39.07h5.21V55.46l-4.44,4.45Zm7.82-22.14V33.86h5.21V47.65l-5.21,5.21Zm7.81,3.91h5.21v8.57L28.65,45Zm7.82,5.21h5.21V58.07l-5.21-5.21Z"/><rect class="cls-1" x="18.23" y="5.21" width="2.6" height="2.6"/><rect class="cls-1" x="23.44" y="5.21" width="28.65" height="2.6"/><rect class="cls-1" x="18.23" y="10.42" width="33.86" height="2.6"/><rect class="cls-1" x="18.23" y="15.63" width="33.86" height="2.6"/><rect class="cls-1" x="7.81" y="20.84" width="44.28" height="2.6"/><rect class="cls-1" x="7.81" y="26.05" width="39.07" height="2.6"/><rect class="cls-1" x="49.49" y="26.05" width="2.6" height="2.6"/></g></g></svg>