<?xml version="1.0" encoding="utf-8"?>
<!-- Generator: Adobe Illustrator 19.2.1, SVG Export Plug-In . SVG Version: 6.00 Build 0)  -->
<svg version="1.1" id="Слой_1" xmlns="http://www.w3.org/2000/svg" xmlns:xlink="http://www.w3.org/1999/xlink" x="0px" y="0px"
	 viewBox="0 0 90 90" style="enable-background:new 0 0 90 90;" xml:space="preserve">
<style type="text/css">
	.st0{fill:#FFFFFF;}
</style>
<title>Ресурс 5</title>
<g id="Слой_2">
	<g id="Слой_1-2">
		<path class="st0" d="M87.6,30.5c1.2-1.8,1.9-4,2-6.2c0-5-4-9-9-9c-0.6,0-1.1,0.1-1.7,0.2C62.6-3.1,34.3-5,15.7,11.3
			s-20.4,44.6-4.1,63.2S56.2,95,74.8,78.6C88.4,66.7,93.5,47.6,87.6,30.5z M86.1,24.3c0,3.1-3.3,6.9-5.5,9c-2.2-2-5.5-5.9-5.5-9
			c0-3,2.4-5.5,5.5-5.5S86.1,21.3,86.1,24.3z M75.4,16.9c-2.4,1.7-3.9,4.5-3.9,7.4c0,6.1,7.1,12.1,7.9,12.8c0.3,0.3,0.7,0.4,1.1,0.4
			c0.4,0,0.8-0.1,1.1-0.4c1.1-0.9,2.2-2,3.2-3.1c0.8,3,1.3,6.1,1.4,9.2H71c-0.3-11-2.8-21.4-7.3-29.3c-1.7-3.2-4-6-6.6-8.5
			C64.1,7.5,70.4,11.5,75.4,16.9z M59,46.7h8.4c-0.3,10.5-2.7,20.3-6.9,27.7c-3.8,6.7-8.6,10.7-13.8,11.5v-8.8
			c2-1.8,7.2-6.9,7.2-12.1c0-4.3-3-8-7.2-8.9v-52c5.1,0.8,10,4.8,13.8,11.5c4.2,7.4,6.6,17.1,6.8,27.5H59c-1,0-1.8,0.8-1.8,1.8
			S58,46.8,59,46.7L59,46.7z M32.5,17c3,0,5.5,2.5,5.5,5.5c0,0,0,0,0,0c0,3.1-3.3,6.9-5.5,9c-2.2-2.1-5.5-5.9-5.5-9
			C27,19.5,29.5,17,32.5,17C32.5,17,32.5,17,32.5,17z M24.8,27.3c1.7,3,3.9,5.7,6.6,7.9c0.3,0.3,0.7,0.4,1.1,0.4
			c0.4,0,0.8-0.1,1.1-0.4c0.8-0.7,7.9-6.6,7.9-12.8c0-5-4.1-9-9-9c-0.6,0-1.3,0.1-1.9,0.2c3.6-5.6,8-8.9,12.6-9.6v39H22.6
			C22.7,37.8,23.5,32.5,24.8,27.3z M44.9,74c-2.2-2.1-5.5-5.8-5.5-9c0-3,2.5-5.5,5.5-5.5c3,0,5.5,2.4,5.5,5.5
			C50.4,68.1,47.1,71.9,44.9,74z M43.2,46.7v9.4c-4.3,0.8-7.3,4.6-7.3,8.9c0,5.4,5.5,10.6,7.3,12.3v8.6c-5.1-0.8-10-4.8-13.8-11.5
			c-4.2-7.4-6.6-17.2-6.8-27.7H43.2z M32.9,5.4c-2.6,2.4-4.9,5.3-6.6,8.4c-4.5,7.9-7,18.3-7.3,29.3H3.6C4.5,25.6,16.2,10.5,32.9,5.4
			z M3.6,46.7H19c0.2,11.1,2.8,21.5,7.3,29.5c1.7,3.1,3.9,6,6.6,8.4C16.1,79.4,4.4,64.3,3.6,46.7z M57.1,84.6
			c2.6-2.4,4.9-5.3,6.6-8.4c4.5-8,7.1-18.4,7.3-29.5h15.4C85.6,64.3,73.9,79.4,57.1,84.6z"/>
	</g>
</g>
</svg>
