<?xml version="1.0" encoding="utf-8"?>
<!-- Generator: Adobe Illustrator 19.2.1, SVG Export Plug-In . SVG Version: 6.00 Build 0)  -->
<svg version="1.1" id="Слой_1" xmlns="http://www.w3.org/2000/svg" xmlns:xlink="http://www.w3.org/1999/xlink" x="0px" y="0px"
	 viewBox="0 0 112.2 72.2" style="enable-background:new 0 0 112.2 72.2;" xml:space="preserve">
<style type="text/css">
	.st0{fill:#FFFFFF;}
</style>
<title>Ресурс 7</title>
<g id="Слой_2">
	<g id="Слой_1-2">
		<path class="st0" d="M110,56.5h-5.4V9.2c0-5.1-4.1-9.2-9.2-9.2c0,0,0,0,0,0H16.8c-5.1,0-9.2,4.1-9.2,9.2v47.3H2.2
			c-1.2,0-2.2,1-2.2,2.2c0,0,0,0,0,0v0.4c0,7.2,5.8,13,13,13h86.2c7.2,0,13-5.8,13-13v-0.4C112.2,57.5,111.2,56.6,110,56.5z M12,9.2
			c0-2.7,2.1-4.8,4.8-4.8h78.5c2.7,0,4.8,2.1,4.8,4.8v47.3H12V9.2z M107.6,61c-0.8,4-4.4,6.8-8.4,6.8H13c-4.1,0-7.6-2.9-8.4-6.8
			H107.6z"/>
		<path class="st0" d="M95,7.5H17.2c-1.2,0-2.2,1-2.2,2.2c0,0,0,0,0,0v41.5c0,1.2,1,2.2,2.2,2.2c0,0,0,0,0,0H95c1.2,0,2.2-1,2.2-2.2
			c0,0,0,0,0,0V9.7C97.2,8.5,96.2,7.5,95,7.5C95,7.5,95,7.5,95,7.5z M92.8,49H19.4V11.9h73.3V49z"/>
		<path class="st0" d="M58.7,62.3h-5.3c-1.2,0-2.2,1-2.2,2.2s1,2.2,2.2,2.2h5.3c1.2,0,2.2-1,2.2-2.2C60.9,63.3,60,62.3,58.7,62.3z"
			/>
		<path class="st0" d="M30.3,40C29,40,28,41,28,42.2c0,0,0,0,0,0v1.4c-0.1,1.2,0.8,2.3,2.1,2.4c1.2,0.1,2.3-0.8,2.4-2.1
			c0-0.1,0-0.2,0-0.3v-1.5C32.4,41,31.5,40,30.3,40z"/>
		<path class="st0" d="M46.9,42.4c-1.2,0-2.2,1-2.2,2.2V45c0,1.2,1,2.2,2.2,2.2c1.2,0,2.2-1,2.2-2.2l0,0v-0.4
			C49.1,43.4,48.1,42.4,46.9,42.4C46.9,42.4,46.9,42.4,46.9,42.4z"/>
		<path class="st0" d="M46.9,30.9c-1.2,0-2.2,1-2.2,2.2l0,0v0.4c0,1.2,1,2.2,2.2,2.2c1.2,0,2.2-1,2.2-2.2v-0.4
			C49.1,31.9,48.1,30.9,46.9,30.9L46.9,30.9z"/>
		<path class="st0" d="M63.4,42.3c-1.2,0-2.2,1-2.2,2.2V45c0,1.2,1,2.2,2.2,2.2c1.2,0,2.2-1,2.2-2.2v-0.5
			C65.6,43.3,64.6,42.3,63.4,42.3z"/>
		<path class="st0" d="M63.4,34.2c-1.2,0-2.2,1-2.2,2.2V37c0,1.2,1,2.2,2.2,2.2c1.2,0,2.2-1,2.2-2.2v-0.5
			C65.6,35.2,64.6,34.2,63.4,34.2C63.4,34.2,63.4,34.2,63.4,34.2z"/>
		<path class="st0" d="M81,42.3c-1.2,0-2.2,1-2.2,2.2c0,0,0,0,0,0V45c-0.1,1.2,0.8,2.3,2.1,2.4c1.2,0.1,2.3-0.8,2.4-2.1
			c0-0.1,0-0.2,0-0.3v-0.5C83.2,43.3,82.2,42.3,81,42.3L81,42.3z"/>
		<path class="st0" d="M81,33.3c-1.2,0-2.2,1-2.2,2.2c0,0,0,0,0,0v1.3c-0.1,1.2,0.8,2.3,2.1,2.4c1.2,0.1,2.3-0.8,2.4-2.1
			c0-0.1,0-0.2,0-0.3v-1.3C83.2,34.2,82.2,33.3,81,33.3L81,33.3z"/>
		<path class="st0" d="M81,25c-1.2,0-2.2,1-2.2,2.2c0,0,0,0,0,0v0.5c-0.1,1.2,0.8,2.3,2.1,2.4c1.2,0.1,2.3-0.8,2.4-2.1
			c0-0.1,0-0.2,0-0.3v-0.5C83.2,26,82.2,25,81,25L81,25z"/>
		<path class="st0" d="M30,36.2c0.4,0,0.8-0.1,1.2-0.3L46.7,26l15.8,5c0.6,0.2,1.3,0.1,1.8-0.2L81.8,20c1.1-0.6,1.4-1.9,0.9-3
			c-0.6-1.1-1.9-1.4-3-0.9c-0.1,0-0.1,0.1-0.2,0.1L62.8,26.5l-15.8-5c-0.6-0.2-1.3-0.1-1.8,0.2L28.9,32.1c-1,0.7-1.3,2-0.7,3
			C28.6,35.8,29.3,36.2,30,36.2z"/>
	</g>
</g>
</svg>
