<?xml version="1.0" encoding="iso-8859-1"?>
<!-- Generator: Adobe Illustrator 22.0.1, SVG Export Plug-In . SVG Version: 6.00 Build 0)  -->
<svg version="1.1" id="Layer_1" xmlns="http://www.w3.org/2000/svg" xmlns:xlink="http://www.w3.org/1999/xlink" x="0px" y="0px"
	 viewBox="-49 141 512 512" style="enable-background:new -49 141 512 512;" xml:space="preserve">
<circle style="fill:#333333;" cx="-38.94" cy="641.447" r="10.06"/>
<circle style="fill:#333333;" cx="218.005" cy="386.309" r="10.04"/>
<path style="fill:#333333;" d="M319.263,246.517c-11.414,0-22.146,4.446-30.216,12.516c-16.661,16.662-16.661,43.772,0,60.433
	c8.332,8.331,19.272,12.495,30.216,12.495c10.941,0,21.886-4.166,30.216-12.495l0,0c16.661-16.662,16.661-43.772,0-60.433
	C341.409,250.961,330.677,246.517,319.263,246.517z M335.282,305.267c-8.833,8.832-23.206,8.832-32.037,0
	c-8.833-8.832-8.833-23.204,0-32.037c4.279-4.279,9.967-6.635,16.018-6.635s11.739,2.356,16.018,6.635
	C344.114,282.063,344.114,296.435,335.282,305.267z"/>
<path style="fill:#333333;" d="M76.409,552.451c-4.964-2.472-10.99-0.451-13.462,4.512l-11.958,24.015
	c-5.2,10.441-15.658,17.423-27.296,18.219l-13.908,0.952c-2.351,0.157-3.897-1.014-4.612-1.729s-1.889-2.264-1.729-4.613
	l0.952-13.907c0.797-11.637,7.779-22.096,18.219-27.296l24.014-11.958c4.964-2.472,6.984-8.499,4.512-13.462
	c-2.471-4.963-8.498-6.984-13.462-4.512l-24.014,11.958c-16.792,8.362-28.02,25.182-29.302,43.898l-0.952,13.907
	c-0.514,7.507,2.242,14.863,7.562,20.183c4.898,4.898,11.524,7.624,18.403,7.624c0.591,0,1.186-0.02,1.78-0.061l13.908-0.952
	c18.716-1.281,35.536-12.508,43.898-29.302l11.958-24.014C83.392,560.949,81.372,554.922,76.409,552.451z"/>
<path style="fill:#333333;" d="M456.07,149.181c-4.711-4.641-11.201-7.068-17.793-6.639l-9.348,0.596
	c-83.819,5.351-162.262,45.81-215.215,111.004l-22.003,27.089l-57.583-1.691c-0.098-0.003-0.197-0.004-0.294-0.004
	c-45.668,0-88.603,17.784-120.896,50.076l-58.979,58.979c-2.805,2.805-3.696,7-2.272,10.702c1.424,3.703,4.894,6.221,8.856,6.423
	l124.844,6.414l-5.09,6.267c-2.565,3.158-2.971,7.553-1.026,11.127c1.956,3.596,4.006,7.135,6.144,10.617l-29.606,35.147
	c-2.531,3.005-3.076,7.211-1.397,10.763c6.467,13.665,15.05,25.942,25.514,36.493c10.718,10.808,23.251,19.646,37.249,26.271
	c1.368,0.648,2.835,0.965,4.293,0.965c2.261,0,4.503-0.764,6.327-2.243c6.378-5.174,13.731-11.311,20.843-17.245
	c5.069-4.23,10.256-8.557,15.102-12.547c2.893,1.741,5.822,3.429,8.795,5.046c1.504,0.818,3.153,1.221,4.796,1.221
	c2.186,0,4.358-0.712,6.156-2.108l6.843-5.31l6.442,125.37c0.204,3.962,2.721,7.432,6.423,8.856c1.172,0.45,2.39,0.67,3.6,0.67
	c2.615,0,5.184-1.023,7.101-2.942l58.979-58.979c32.293-32.293,50.076-75.227,50.076-120.896v-54.995l23.267-18.055
	c69.73-54.11,112.196-135.704,116.512-223.862l0.239-4.886C463.295,160.271,460.779,153.823,456.07,149.181z M-15.877,386.823
	l43.012-43.012c28.465-28.465,66.303-44.157,106.553-44.196l42.085,1.236l-74.71,91.98L-15.877,386.823z M135.774,514.875
	c-5.241,4.372-10.614,8.856-15.6,12.957c-9.644-5.223-18.368-11.74-25.992-19.428c-7.384-7.445-13.669-15.922-18.737-25.26
	l21.676-25.733c6.554,8.793,13.728,17.122,21.478,24.925c0.006,0.006,0.012,0.011,0.018,0.017c0.002,0.002,0.004,0.005,0.006,0.007
	c0.003,0.003,0.006,0.005,0.009,0.008c8.593,8.648,17.836,16.584,27.641,23.761C142.811,509.003,139.264,511.963,135.774,514.875z
	 M302.875,468.673c0,40.305-15.695,78.197-44.196,106.698l-43.012,43.012l-6.002-116.792l93.209-72.33V468.673z M442.678,170.78
	c-4.029,82.297-43.673,158.467-108.767,208.98l-157.46,122.189c-13.058-7.63-25.229-16.639-36.368-26.846l53.086-53.086
	c3.92-3.921,3.92-10.278,0-14.199c-3.921-3.921-10.278-3.921-14.199,0l-53.036,53.036c-9.751-10.795-18.387-22.541-25.74-35.104
	L229.3,266.801c49.432-60.859,122.661-98.629,200.908-103.623l9.348-0.596c1.225-0.076,2.045,0.532,2.423,0.904
	c0.376,0.371,1,1.178,0.94,2.409L442.678,170.78z"/>
</svg>
