<?xml version="1.0" encoding="utf-8"?>
<!-- Generator: Adobe Illustrator 19.2.1, SVG Export Plug-In . SVG Version: 6.00 Build 0)  -->
<svg version="1.1" id="Слой_1" xmlns="http://www.w3.org/2000/svg" xmlns:xlink="http://www.w3.org/1999/xlink" x="0px" y="0px"
	 viewBox="0 0 91.1 90" style="enable-background:new 0 0 91.1 90;" xml:space="preserve">
<style type="text/css">
	.st0{fill:#FFFFFF;}
</style>
<title>Ресурс 8</title>
<g id="Слой_2">
	<g id="Слой_1-2">
		<path class="st0" d="M60.8,51.1c2-0.1,3.8,1.4,3.9,3.4c0,1,0.8,1.8,1.8,1.8c1,0,1.8-0.8,1.8-1.8c0,0,0,0,0,0
			c-0.1-3.3-2.5-6.1-5.7-6.7v-0.9c0-1-0.8-1.8-1.8-1.8c-1,0-1.8,0.8-1.8,1.8v0.9c-3.2,0.6-5.6,3.4-5.7,6.7c0.1,4,3.5,7.1,7.5,7
			c0,0,0,0,0,0c1.9,0.3,3.2,2,2.9,3.9c-0.3,1.9-2,3.2-3.9,2.9c-1.7-0.2-2.9-1.7-2.9-3.4c0-1-0.8-1.8-1.8-1.8c-1,0-1.8,0.8-1.8,1.8
			c0.1,3.3,2.4,6,5.6,6.7v0.8c0,1,0.8,1.8,1.8,1.8c1,0,1.8-0.8,1.8-1.8v-0.8c3.2-0.7,5.6-3.4,5.7-6.8c-0.2-4-3.5-7.1-7.5-6.9
			c-2,0.1-3.8-1.4-3.9-3.4C57,52.5,58.8,50.9,60.8,51.1z"/>
		<path class="st0" d="M80.3,47.3c-2.3-3.6-5.6-6.5-9.5-8.4c-0.9-0.4-1.9-0.1-2.4,0.8s-0.1,1.9,0.8,2.4c9.7,4.7,13.8,16.4,9.2,26.1
			c-0.1,0.2-0.2,0.5-0.4,0.7c-0.5,0.9-0.1,1.9,0.7,2.4c0,0,0,0,0,0c0.3,0.1,0.5,0.2,0.8,0.2c0.7,0,1.3-0.4,1.6-0.9
			C85.2,63.2,84.8,54.3,80.3,47.3L80.3,47.3z"/>
		<path class="st0" d="M63.5,40.2h0.1c1,0,1.8-0.8,1.8-1.8c0-1-0.8-1.8-1.8-1.8h-0.1c-1,0-1.8,0.8-1.8,1.8
			C61.7,39.4,62.5,40.2,63.5,40.2z"/>
		<path class="st0" d="M52.4,77.4c-6.8-3.3-11.1-10.1-11.1-17.7c0-3.2,0.8-6.3,2.3-9.2c0.5-0.8,0.2-1.9-0.6-2.4s-1.9-0.2-2.4,0.6
			c0,0-0.1,0.1-0.1,0.1c-6,11.3-1.7,25.3,9.6,31.3c0.3,0.1,0.6,0.3,0.8,0.4c0.9,0.5,1.9,0.2,2.4-0.7c0.5-0.9,0.2-1.9-0.7-2.4
			C52.5,77.5,52.4,77.4,52.4,77.4z"/>
		<path class="st0" d="M58.2,79.3L58.2,79.3c-1.1,0-1.9,0.8-1.9,1.8c0,1,0.8,1.8,1.8,1.8c0,0,0,0,0,0h0.1c1,0,1.8-0.8,1.8-1.8
			C60,80.1,59.2,79.3,58.2,79.3L58.2,79.3z"/>
		<path class="st0" d="M68.9,30.6c-0.2-0.5-0.5-1-0.8-1.5h4.6c4.5,0,8.2-3.7,8.2-8.2s-3.7-8.2-8.2-8.2c0,0,0,0,0,0H58.5
			c2.6-3.7,1.6-8.8-2.1-11.4C55,0.5,53.4,0,51.8,0H8.2C3.7,0,0,3.7,0,8.2c0,4.5,3.7,8.2,8.2,8.2h14.3c-1.9,2.8-1.9,6.5,0,9.3h-4.6
			c-4.5,0-8.2,3.7-8.2,8.2c0,2.5,1.1,4.9,3.1,6.4c-3.5,2.8-4.1,7.9-1.3,11.5c0.4,0.5,0.8,0.9,1.3,1.3c-3.5,2.8-4.1,7.9-1.3,11.5
			c0.4,0.5,0.8,0.9,1.3,1.3c-3.5,2.8-4.1,8-1.3,11.5c1.6,2,3.9,3.1,6.4,3.1h21c11.4,12.2,30.5,12.9,42.7,1.5S94.4,51.3,83,39.1
			C79.2,35,74.3,32.1,68.9,30.6z M3.6,8.2c0-2.6,2.1-4.6,4.6-4.6c0,0,0,0,0,0h43.6c2.6,0.1,4.5,2.3,4.4,4.8c-0.1,2.4-2,4.3-4.4,4.4
			H8.2C5.6,12.8,3.6,10.7,3.6,8.2z M24.5,21c0-2.6,2.1-4.6,4.6-4.6h43.6c2.6,0.1,4.5,2.3,4.4,4.8c-0.1,2.4-2,4.3-4.4,4.4H29.2
			C26.6,25.6,24.5,23.6,24.5,21L24.5,21z M13.2,33.8c0-2.6,2.1-4.6,4.6-4.6h43.6c0.7,0,1.4,0.2,2,0.5c-0.8-0.1-1.7-0.1-2.5-0.1
			c-8,0-15.7,3.2-21.4,8.9H17.8C15.2,38.4,13.2,36.3,13.2,33.8z M13.2,46.6c0-2.5,2.1-4.6,4.6-4.6h18.6c-2,2.8-3.6,5.9-4.6,9.3h-14
			C15.3,51.3,13.2,49.2,13.2,46.6C13.2,46.6,13.2,46.6,13.2,46.6z M13.2,59.4c0-2.6,2.1-4.6,4.6-4.6H31c-0.3,1.7-0.4,3.3-0.4,5
			c0,1.4,0.1,2.8,0.3,4.2H17.8C15.2,64,13.2,62,13.2,59.4z M17.8,76.8c-2.6,0.1-4.7-1.9-4.8-4.4s1.9-4.7,4.4-4.8c0.1,0,0.3,0,0.4,0
			h13.8c0.9,3.3,2.3,6.4,4.3,9.3H17.8z M60.8,86.4c-14.7,0-26.7-12-26.6-26.7s12-26.7,26.7-26.6c14.7,0,26.6,12,26.6,26.7
			C87.5,74.5,75.6,86.4,60.8,86.4L60.8,86.4z"/>
	</g>
</g>
</svg>
