<?xml version="1.0" encoding="utf-8"?>
<!-- Generator: Adobe Illustrator 19.2.1, SVG Export Plug-In . SVG Version: 6.00 Build 0)  -->
<svg version="1.1" id="Слой_1" xmlns="http://www.w3.org/2000/svg" xmlns:xlink="http://www.w3.org/1999/xlink" x="0px" y="0px"
	 viewBox="0 0 54.1 90" style="enable-background:new 0 0 54.1 90;" xml:space="preserve">
<style type="text/css">
	.st0{fill:#FFFFFF;}
</style>
<title>Ресурс 6</title>
<g id="Слой_2">
	<g id="Слой_1-2">
		<path class="st0" d="M27,73.5c-2.8,0-5,2.2-5,5s2.2,5,5,5s5-2.2,5-5S29.8,73.5,27,73.5z M27,80c-0.9,0-1.5-0.7-1.5-1.5
			s0.7-1.5,1.5-1.5c0.9,0,1.5,0.7,1.5,1.5C28.6,79.3,27.9,80,27,80L27,80z"/>
		<path class="st0" d="M26.4,10.8h8.9c1-0.1,1.8-1,1.7-2c-0.1-0.9-0.8-1.6-1.7-1.7h-8.9c-1-0.1-1.9,0.7-2,1.7c-0.1,1,0.7,1.9,1.7,2
			C26.2,10.8,26.3,10.8,26.4,10.8z"/>
		<circle class="st0" cx="20.8" cy="9" r="1.9"/>
		<path class="st0" d="M48.3,0H5.8C2.6,0,0,2.6,0,5.8v78.5C0,87.4,2.6,90,5.8,90h42.6c3.2,0,5.8-2.6,5.8-5.8V5.8
			C54.1,2.6,51.5,0,48.3,0z M50.3,84.2c0,1.1-0.9,1.9-1.9,1.9H5.8c-1.1,0-1.9-0.9-1.9-1.9V5.8c0-1.1,0.9-1.9,1.9-1.9h0h42.6
			c1.1,0,1.9,0.9,1.9,1.9V84.2z"/>
		<path class="st0" d="M19.7,48.6c0.5,0,1-0.2,1.4-0.6l9.2-9.2c0.8-0.8,0.8-2,0-2.7c-0.8-0.8-2-0.8-2.7,0l0,0l-9.2,9.3
			c-0.7,0.8-0.7,2,0,2.7C18.7,48.4,19.2,48.6,19.7,48.6z"/>
		<path class="st0" d="M29.4,47.8c0.8,0.7,2,0.7,2.7,0l3.7-3.7c0.8-0.8,0.7-2,0-2.7s-2-0.7-2.7,0l0,0l-3.7,3.7
			C28.6,45.9,28.6,47.1,29.4,47.8z"/>
		<path class="st0" d="M44.5,14.2H9.6c-1,0-1.7,0.8-1.7,1.7c0,0,0,0,0,0.1v53c0,1,0.8,1.7,1.7,1.7h34.9c1,0,1.7-0.8,1.7-1.7V16
			C46.3,15,45.5,14.2,44.5,14.2C44.6,14.2,44.5,14.2,44.5,14.2z M42.8,67.2H11.3V17.7h31.5V67.2L42.8,67.2z"/>
	</g>
</g>
</svg>
